<svg xmlns="http://www.w3.org/2000/svg" xmlns:xlink="http://www.w3.org/1999/xlink" width="50" zoomAndPan="magnify" viewBox="0 0 37.5 37.499999" height="50" preserveAspectRatio="xMidYMid meet" version="1.0"><defs><clipPath id="a811f5dc6b"><path d="M 16.125 5.773438 L 27.375 5.773438 L 27.375 20.773438 L 16.125 20.773438 Z M 16.125 5.773438 " clip-rule="nonzero"/></clipPath><clipPath id="47bc541e85"><path d="M 17.625 5.773438 L 25.875 5.773438 C 26.273438 5.773438 26.65625 5.933594 26.9375 6.214844 C 27.21875 6.496094 27.375 6.878906 27.375 7.273438 L 27.375 19.273438 C 27.375 19.671875 27.21875 20.054688 26.9375 20.335938 C 26.65625 20.617188 26.273438 20.773438 25.875 20.773438 L 17.625 20.773438 C 17.226562 20.773438 16.84375 20.617188 16.5625 20.335938 C 16.28125 20.054688 16.125 19.671875 16.125 19.273438 L 16.125 7.273438 C 16.125 6.878906 16.28125 6.496094 16.5625 6.214844 C 16.84375 5.933594 17.226562 5.773438 17.625 5.773438 " clip-rule="nonzero"/></clipPath><clipPath id="288ae62fc0"><path d="M 11.773438 5.773438 L 23.023438 5.773438 L 23.023438 17.023438 L 11.773438 17.023438 Z M 11.773438 5.773438 " clip-rule="nonzero"/></clipPath><clipPath id="42151eac40"><path d="M 17.398438 5.773438 C 14.292969 5.773438 11.773438 8.292969 11.773438 11.398438 C 11.773438 14.507812 14.292969 17.023438 17.398438 17.023438 C 20.507812 17.023438 23.023438 14.507812 23.023438 11.398438 C 23.023438 8.292969 20.507812 5.773438 17.398438 5.773438 " clip-rule="nonzero"/></clipPath><clipPath id="a51d98f3c3"><path d="M 20.476562 5.773438 L 31.726562 5.773438 L 31.726562 17.023438 L 20.476562 17.023438 Z M 20.476562 5.773438 " clip-rule="nonzero"/></clipPath><clipPath id="d18f6e1e1e"><path d="M 26.101562 5.773438 C 22.992188 5.773438 20.476562 8.292969 20.476562 11.398438 C 20.476562 14.507812 22.992188 17.023438 26.101562 17.023438 C 29.207031 17.023438 31.726562 14.507812 31.726562 11.398438 C 31.726562 8.292969 29.207031 5.773438 26.101562 5.773438 " clip-rule="nonzero"/></clipPath><clipPath id="f9865f9113"><path d="M 11.773438 13.273438 L 31.726562 13.273438 L 31.726562 20.773438 L 11.773438 20.773438 Z M 11.773438 13.273438 " clip-rule="nonzero"/></clipPath><clipPath id="abf22a814e"><path d="M 13.273438 13.273438 L 30.226562 13.273438 C 30.621094 13.273438 31.003906 13.433594 31.285156 13.714844 C 31.566406 13.996094 31.726562 14.378906 31.726562 14.773438 L 31.726562 19.273438 C 31.726562 19.671875 31.566406 20.054688 31.285156 20.335938 C 31.003906 20.617188 30.621094 20.773438 30.226562 20.773438 L 13.273438 20.773438 C 12.878906 20.773438 12.496094 20.617188 12.214844 20.335938 C 11.933594 20.054688 11.773438 19.671875 11.773438 19.273438 L 11.773438 14.773438 C 11.773438 14.378906 11.933594 13.996094 12.214844 13.714844 C 12.496094 13.433594 12.878906 13.273438 13.273438 13.273438 " clip-rule="nonzero"/></clipPath><clipPath id="58f719c399"><path d="M 23.023438 16.125 L 31.726562 16.125 L 31.726562 27.375 L 23.023438 27.375 Z M 23.023438 16.125 " clip-rule="nonzero"/></clipPath><clipPath id="b0e9d4e648"><path d="M 24.523438 16.125 L 30.226562 16.125 C 30.621094 16.125 31.003906 16.28125 31.285156 16.5625 C 31.566406 16.84375 31.726562 17.226562 31.726562 17.625 L 31.726562 25.875 C 31.726562 26.273438 31.566406 26.65625 31.285156 26.9375 C 31.003906 27.21875 30.621094 27.375 30.226562 27.375 L 24.523438 27.375 C 24.128906 27.375 23.746094 27.21875 23.464844 26.9375 C 23.183594 26.65625 23.023438 26.273438 23.023438 25.875 L 23.023438 17.625 C 23.023438 17.226562 23.183594 16.84375 23.464844 16.5625 C 23.746094 16.28125 24.128906 16.125 24.523438 16.125 " clip-rule="nonzero"/></clipPath><clipPath id="a6aa45f183"><path d="M 6.148438 20.773438 L 23.023438 20.773438 L 23.023438 32.023438 L 6.148438 32.023438 Z M 6.148438 20.773438 " clip-rule="nonzero"/></clipPath><clipPath id="062ac29df8"><path d="M 7.648438 20.773438 L 21.523438 20.773438 C 21.921875 20.773438 22.304688 20.933594 22.585938 21.214844 C 22.867188 21.496094 23.023438 21.878906 23.023438 22.273438 L 23.023438 30.523438 C 23.023438 30.921875 22.867188 31.304688 22.585938 31.585938 C 22.304688 31.867188 21.921875 32.023438 21.523438 32.023438 L 7.648438 32.023438 C 7.253906 32.023438 6.871094 31.867188 6.589844 31.585938 C 6.308594 31.304688 6.148438 30.921875 6.148438 30.523438 L 6.148438 22.273438 C 6.148438 21.878906 6.308594 21.496094 6.589844 21.214844 C 6.871094 20.933594 7.253906 20.773438 7.648438 20.773438 " clip-rule="nonzero"/></clipPath></defs><g clip-path="url(#a811f5dc6b)"><g clip-path="url(#47bc541e85)"><path fill="#ff3131" d="M 16.125 5.773438 L 27.375 5.773438 L 27.375 20.773438 L 16.125 20.773438 Z M 16.125 5.773438 " fill-opacity="1" fill-rule="nonzero"/></g></g><g clip-path="url(#288ae62fc0)"><g clip-path="url(#42151eac40)"><path fill="#ff3131" d="M 11.773438 5.773438 L 23.023438 5.773438 L 23.023438 17.023438 L 11.773438 17.023438 Z M 11.773438 5.773438 " fill-opacity="1" fill-rule="nonzero"/></g></g><g clip-path="url(#a51d98f3c3)"><g clip-path="url(#d18f6e1e1e)"><path fill="#ff3131" d="M 20.476562 5.773438 L 31.726562 5.773438 L 31.726562 17.023438 L 20.476562 17.023438 Z M 20.476562 5.773438 " fill-opacity="1" fill-rule="nonzero"/></g></g><g clip-path="url(#f9865f9113)"><g clip-path="url(#abf22a814e)"><path fill="#ff3131" d="M 11.773438 13.273438 L 31.726562 13.273438 L 31.726562 20.773438 L 11.773438 20.773438 Z M 11.773438 13.273438 " fill-opacity="1" fill-rule="nonzero"/></g></g><g clip-path="url(#58f719c399)"><g clip-path="url(#b0e9d4e648)"><path fill="#ff3131" d="M 23.023438 16.125 L 31.726562 16.125 L 31.726562 27.375 L 23.023438 27.375 Z M 23.023438 16.125 " fill-opacity="1" fill-rule="nonzero"/></g></g><g clip-path="url(#a6aa45f183)"><g clip-path="url(#062ac29df8)"><path fill="#ff3131" d="M 6.148438 20.773438 L 23.023438 20.773438 L 23.023438 32.023438 L 6.148438 32.023438 Z M 6.148438 20.773438 " fill-opacity="1" fill-rule="nonzero"/></g></g><path fill="#ffffff" d="M 23.4375 28.125 L 23.4375 31.609375 C 23.4375 31.933594 23.316406 32.214844 23.078125 32.453125 C 22.839844 32.691406 22.558594 32.8125 22.234375 32.8125 L 5.890625 32.8125 C 5.566406 32.8125 5.285156 32.691406 5.046875 32.453125 C 4.808594 32.214844 4.6875 31.933594 4.6875 31.609375 L 4.6875 21.515625 C 4.6875 21.191406 4.808594 20.910156 5.046875 20.671875 C 5.285156 20.433594 5.566406 20.3125 5.890625 20.3125 L 10.9375 20.3125 L 10.9375 12.5 C 10.9375 10.335938 11.699219 8.492188 13.222656 6.972656 C 14.742188 5.449219 16.585938 4.6875 18.75 4.6875 L 25 4.6875 C 27.164062 4.6875 29.007812 5.449219 30.527344 6.972656 C 32.050781 8.492188 32.8125 10.335938 32.8125 12.5 L 32.8125 32.8125 L 31.25 32.8125 L 31.25 28.125 Z M 23.4375 26.5625 L 31.25 26.5625 L 31.25 12.5 C 31.25 10.78125 30.636719 9.308594 29.414062 8.085938 C 28.191406 6.863281 26.71875 6.25 25 6.25 L 18.75 6.25 C 17.03125 6.25 15.558594 6.863281 14.335938 8.085938 C 13.113281 9.308594 12.5 10.78125 12.5 12.5 L 12.5 20.3125 L 22.234375 20.3125 C 22.558594 20.3125 22.839844 20.433594 23.078125 20.671875 C 23.316406 20.910156 23.4375 21.191406 23.4375 21.515625 Z M 16.40625 14.84375 L 16.40625 13.28125 L 27.34375 13.28125 L 27.34375 14.84375 Z M 14.0625 26.328125 L 21.875 21.875 L 6.25 21.875 Z M 14.0625 27.921875 L 6.25 23.46875 L 6.25 31.25 L 21.875 31.25 L 21.875 23.46875 Z M 6.25 21.875 L 6.25 31.25 Z M 6.25 21.875 " fill-opacity="1" fill-rule="nonzero"/></svg>