<svg xmlns="http://www.w3.org/2000/svg" xmlns:xlink="http://www.w3.org/1999/xlink" width="50" zoomAndPan="magnify" viewBox="0 0 37.5 37.499999" height="50" preserveAspectRatio="xMidYMid meet" version="1.0"><defs><clipPath id="91c58b0094"><path d="M 8.101562 7.726562 L 30.824219 7.726562 L 30.824219 17.570312 L 8.101562 17.570312 Z M 8.101562 7.726562 " clip-rule="nonzero"/></clipPath><clipPath id="817522db57"><path d="M 19.460938 7.726562 L 30.824219 17.570312 L 8.101562 17.570312 L 19.460938 7.726562 " clip-rule="nonzero"/></clipPath><clipPath id="665db8425e"><path d="M 9.449219 15.226562 L 28.648438 15.226562 L 28.648438 30.824219 L 9.449219 30.824219 Z M 9.449219 15.226562 " clip-rule="nonzero"/></clipPath></defs><g clip-path="url(#91c58b0094)"><g clip-path="url(#817522db57)"><path fill="#0cc0df" d="M 8.101562 7.726562 L 30.824219 7.726562 L 30.824219 17.570312 L 8.101562 17.570312 Z M 8.101562 7.726562 " fill-opacity="1" fill-rule="nonzero"/></g></g><g clip-path="url(#665db8425e)"><path fill="#0cc0df" d="M 9.449219 15.226562 L 28.648438 15.226562 L 28.648438 30.824219 L 9.449219 30.824219 Z M 9.449219 15.226562 " fill-opacity="1" fill-rule="nonzero"/></g><path fill="#ffffff" d="M 7.96875 31.875 L 7.96875 17.300781 L 4.886719 19.675781 L 3.921875 18.414062 L 7.96875 15.300781 L 7.96875 11.09375 L 9.5625 11.09375 L 9.5625 14.066406 L 19.125 6.773438 L 34.328125 18.414062 L 33.363281 19.667969 L 30.28125 17.300781 L 30.28125 31.875 Z M 9.5625 30.28125 L 16.917969 30.28125 L 16.917969 22.679688 L 21.332031 22.679688 L 21.332031 30.28125 L 28.6875 30.28125 L 28.6875 16.097656 L 19.125 8.804688 L 9.5625 16.097656 Z M 7.96875 9.195312 C 7.96875 8.234375 8.273438 7.410156 8.886719 6.726562 C 9.5 6.042969 10.378906 5.699219 11.523438 5.699219 C 12.222656 5.699219 12.722656 5.515625 13.027344 5.152344 C 13.332031 4.785156 13.484375 4.332031 13.484375 3.800781 L 15.078125 3.800781 C 15.078125 4.761719 14.773438 5.582031 14.160156 6.269531 C 13.546875 6.953125 12.667969 7.292969 11.523438 7.292969 C 10.828125 7.292969 10.328125 7.476562 10.019531 7.84375 C 9.714844 8.210938 9.5625 8.660156 9.5625 9.195312 Z M 9.5625 30.28125 L 28.6875 30.28125 Z M 9.5625 30.28125 " fill-opacity="1" fill-rule="nonzero"/></svg>