<svg width="20" height="20" viewBox="0 0 20 20" fill="none" xmlns="http://www.w3.org/2000/svg">
  <path
    d="M8.83347 19.3333C8.50291 19.3333 8.22563 19.2213 8.00163 18.9973C7.77763 18.7733 7.66602 18.4964 7.6668 18.1666V11.1666L0.900133 2.53329C0.608466 2.1444 0.564522 1.73607 0.7683 1.30829C0.972078 0.880515 1.32713 0.666626 1.83347 0.666626H18.1668C18.6724 0.666626 19.0274 0.880515 19.232 1.30829C19.4365 1.73607 19.3926 2.1444 19.1001 2.53329L12.3335 11.1666V18.1666C12.3335 18.4972 12.2215 18.7745 11.9975 18.9985C11.7735 19.2225 11.4966 19.3341 11.1668 19.3333H8.83347ZM10.0001 10.35L15.7751 2.99996H4.22513L10.0001 10.35Z"
    fill="#343A40"
  />
</svg>
