<svg width="45" height="45" viewBox="0 0 45 45" fill="none" xmlns="http://www.w3.org/2000/svg">
    <path d="M39.7385 5.26125C40.7064 6.22926 41.2501 7.54207 41.2501 8.91094C41.2501 10.2798 40.7064 11.5926 39.7385 12.5606L38.8085 13.4906C38.47 13.4164 38.1363 13.3218 37.8092 13.2075C36.4189 12.7211 35.1572 11.9255 34.1192 10.8806C33.0743 9.84256 32.2787 8.58087 31.7923 7.19062C31.6786 6.86343 31.5847 6.5297 31.511 6.19125L32.4392 5.26125C33.4072 4.2934 34.72 3.74968 36.0889 3.74968C37.4577 3.74968 38.7705 4.2934 39.7385 5.26125ZM27.3373 24.9619C26.5798 25.7194 26.201 26.0981 25.7829 26.4244C25.2902 26.8086 24.757 27.1381 24.1929 27.4069C23.7148 27.6337 23.2067 27.8025 22.1904 28.1419L16.8317 29.9287C16.5862 30.011 16.3227 30.0231 16.0708 29.9637C15.8188 29.9044 15.5884 29.7759 15.4055 29.5928C15.2226 29.4097 15.0943 29.1791 15.0353 28.9271C14.9762 28.6751 14.9886 28.4116 15.071 28.1662L16.8579 22.8094C17.1954 21.7931 17.3642 21.285 17.5929 20.8069C17.8629 20.2425 18.1929 19.7081 18.5754 19.2169C18.9017 18.7987 19.2804 18.42 20.0379 17.6606L29.2554 8.445C29.8895 10.1069 30.8692 11.6151 32.1298 12.87C33.3847 14.1305 34.893 15.1102 36.5548 15.7444L27.3373 24.9619Z" fill="black"/>
    <path d="M22.5 41.2499C32.8556 41.2499 41.25 32.8555 41.25 22.4999C41.2525 20.3298 40.8775 18.1758 40.1419 16.1342L29.2238 27.0524C28.5656 27.7124 28.0706 28.2074 27.5138 28.6405C26.8602 29.1509 26.1529 29.5885 25.4044 29.9455C24.7669 30.2492 24.1031 30.4705 23.2181 30.7649L17.7206 32.5967C16.98 32.8437 16.1852 32.8794 15.4254 32.7001C14.6655 32.5207 13.9706 32.1333 13.4186 31.5813C12.8665 31.0292 12.4791 30.3343 12.2998 29.5745C12.1204 28.8147 12.1562 28.0199 12.4031 27.2792L14.235 21.7817C14.5294 20.8967 14.7506 20.233 15.0544 19.5955C15.4106 18.8474 15.8494 18.1405 16.3594 17.4861C16.7925 16.9292 17.2875 16.4361 17.9475 15.7761L28.8656 4.85798C26.824 4.12237 24.6701 3.74741 22.5 3.74986C12.1444 3.74986 3.75 12.1442 3.75 22.4999C3.75 32.8555 12.1444 41.2499 22.5 41.2499Z" fill="black"/>
    </svg> 