<svg width="45" height="45" viewBox="0 0 45 45" fill="none" xmlns="http://www.w3.org/2000/svg">
    <path d="M22.5 8.4375C13.125 8.4375 5.11875 14.2688 1.875 22.5C5.11875 30.7312 13.125 36.5625 22.5 36.5625C31.875 36.5625 39.8812 30.7312 43.125 22.5C39.8812 14.2688 31.875 8.4375 22.5 8.4375ZM22.5 31.875C17.325 31.875 13.125 27.675 13.125 22.5C13.125 17.325 17.325 13.125 22.5 13.125C27.675 13.125 31.875 17.325 31.875 22.5C31.875 27.675 27.675 31.875 22.5 31.875ZM22.5 16.875C19.3875 16.875 16.875 19.3875 16.875 22.5C16.875 25.6125 19.3875 28.125 22.5 28.125C25.6125 28.125 28.125 25.6125 28.125 22.5C28.125 19.3875 25.6125 16.875 22.5 16.875Z" fill="black"/>
  </svg>